<?xml version="1.0"?>
<svg xmlns="http://www.w3.org/2000/svg"
xmlns:xlink="http://www.w3.org/1999/xlink" xmlns:cml="http://www.xml-cml.org/schema" width="437.726" height="580.128" x="0" y="0" font-family="sans-serif" stroke="rgb(0,0,0)" stroke-width="1"  stroke-linecap="round">
<rect x="0%" y="0%" width="100%" height="100%" stroke-width="0" fill="rgb(255,255,255)"  />
<line x1="175.1" y1="209.4" x2="176.7" y2="209.3" stroke="rgb(0,0,0)"  stroke-width="1.0"/>
<line x1="174.4" y1="207.3" x2="177.3" y2="207.1" stroke="rgb(0,0,0)"  stroke-width="1.0"/>
<line x1="173.6" y1="205.1" x2="177.8" y2="204.9" stroke="rgb(0,0,0)"  stroke-width="1.0"/>
<line x1="172.9" y1="203.0" x2="178.3" y2="202.7" stroke="rgb(0,0,0)"  stroke-width="1.0"/>
<line x1="172.1" y1="200.8" x2="178.8" y2="200.5" stroke="rgb(0,0,0)"  stroke-width="1.0"/>
<line x1="171.4" y1="198.7" x2="179.4" y2="198.3" stroke="rgb(0,0,0)"  stroke-width="1.0"/>
<line x1="165.2" y1="219.4" x2="152.7" y2="213.0" stroke="rgb(0,0,0)"  stroke-width="1.0"/>
<line x1="150.8" y1="324.8" x2="152.3" y2="324.3" stroke="rgb(0,0,0)"  stroke-width="1.0"/>
<line x1="148.2" y1="318.9" x2="151.0" y2="318.0" stroke="rgb(0,0,0)"  stroke-width="1.0"/>
<line x1="145.6" y1="313.0" x2="149.6" y2="311.7" stroke="rgb(0,0,0)"  stroke-width="1.0"/>
<line x1="143.1" y1="307.1" x2="148.2" y2="305.4" stroke="rgb(0,0,0)"  stroke-width="1.0"/>
<line x1="140.5" y1="301.2" x2="146.9" y2="299.2" stroke="rgb(0,0,0)"  stroke-width="1.0"/>
<line x1="137.9" y1="295.3" x2="145.5" y2="292.9" stroke="rgb(0,0,0)"  stroke-width="1.0"/>
<polygon points="183.781130 358.915771 210.827133 360.575214 209.163839 368.400395 " stroke-width="1.000000" fill="rgb(0,0,0)"  stroke="rgb(0,0,0)" />
<polygon points="167.511665 395.457589 184.375766 416.667070 177.447563 420.667070 " stroke-width="1.000000" fill="rgb(0,0,0)"  stroke="rgb(0,0,0)" />
<line x1="124.7" y1="395.8" x2="123.5" y2="394.7" stroke="rgb(0,0,0)"  stroke-width="1.0"/>
<line x1="122.3" y1="399.4" x2="120.2" y2="397.5" stroke="rgb(0,0,0)"  stroke-width="1.0"/>
<line x1="120.0" y1="403.0" x2="116.9" y2="400.2" stroke="rgb(0,0,0)"  stroke-width="1.0"/>
<line x1="117.6" y1="406.6" x2="113.5" y2="403.0" stroke="rgb(0,0,0)"  stroke-width="1.0"/>
<line x1="115.2" y1="410.3" x2="110.2" y2="405.8" stroke="rgb(0,0,0)"  stroke-width="1.0"/>
<line x1="112.8" y1="413.9" x2="106.8" y2="408.5" stroke="rgb(0,0,0)"  stroke-width="1.0"/>
<line x1="49.8" y1="531.0" x2="73.1" y2="517.5" stroke="rgb(0,0,0)"  stroke-width="1.0"/>
<line x1="52.8" y1="536.2" x2="76.1" y2="522.7" stroke="rgb(0,0,0)"  stroke-width="1.0"/>
<line x1="143.9" y1="520.1" x2="167.3" y2="533.6" stroke="rgb(0,0,0)"  stroke-width="1.0"/>
<line x1="275.5" y1="361.4" x2="274.8" y2="362.8" stroke="rgb(0,0,0)"  stroke-width="1.0"/>
<line x1="277.7" y1="361.8" x2="276.4" y2="364.4" stroke="rgb(0,0,0)"  stroke-width="1.0"/>
<line x1="280.0" y1="362.2" x2="278.1" y2="365.9" stroke="rgb(0,0,0)"  stroke-width="1.0"/>
<line x1="282.2" y1="362.6" x2="279.7" y2="367.5" stroke="rgb(0,0,0)"  stroke-width="1.0"/>
<line x1="284.4" y1="363.1" x2="281.4" y2="369.0" stroke="rgb(0,0,0)"  stroke-width="1.0"/>
<line x1="286.6" y1="363.5" x2="283.0" y2="370.6" stroke="rgb(0,0,0)"  stroke-width="1.0"/>
<line x1="261.6" y1="367.9" x2="262.4" y2="381.8" stroke="rgb(0,0,0)"  stroke-width="1.0"/>
<line x1="287.9" y1="244.6" x2="288.7" y2="246.0" stroke="rgb(0,0,0)"  stroke-width="1.0"/>
<line x1="291.3" y1="241.9" x2="292.7" y2="244.4" stroke="rgb(0,0,0)"  stroke-width="1.0"/>
<line x1="294.7" y1="239.2" x2="296.8" y2="242.8" stroke="rgb(0,0,0)"  stroke-width="1.0"/>
<line x1="298.1" y1="236.5" x2="300.8" y2="241.2" stroke="rgb(0,0,0)"  stroke-width="1.0"/>
<line x1="301.5" y1="233.8" x2="304.8" y2="239.6" stroke="rgb(0,0,0)"  stroke-width="1.0"/>
<line x1="304.9" y1="231.1" x2="308.9" y2="238.0" stroke="rgb(0,0,0)"  stroke-width="1.0"/>
<polygon points="253.944514 221.212377 226.898512 219.552934 228.561805 211.727753 " stroke-width="1.000000" fill="rgb(0,0,0)"  stroke="rgb(0,0,0)" />
<polygon points="270.213980 184.670559 253.349878 163.461078 260.278082 159.461078 " stroke-width="1.000000" fill="rgb(0,0,0)"  stroke="rgb(0,0,0)" />
<line x1="313.0" y1="184.3" x2="314.2" y2="185.4" stroke="rgb(0,0,0)"  stroke-width="1.0"/>
<line x1="315.4" y1="180.7" x2="317.5" y2="182.6" stroke="rgb(0,0,0)"  stroke-width="1.0"/>
<line x1="317.8" y1="177.1" x2="320.9" y2="179.9" stroke="rgb(0,0,0)"  stroke-width="1.0"/>
<line x1="320.2" y1="173.5" x2="324.2" y2="177.1" stroke="rgb(0,0,0)"  stroke-width="1.0"/>
<line x1="322.6" y1="169.9" x2="327.6" y2="174.4" stroke="rgb(0,0,0)"  stroke-width="1.0"/>
<line x1="325.0" y1="166.3" x2="330.9" y2="171.6" stroke="rgb(0,0,0)"  stroke-width="1.0"/>
<line x1="361.6" y1="57.4" x2="385.0" y2="43.9" stroke="rgb(0,0,0)"  stroke-width="1.0"/>
<line x1="364.6" y1="62.6" x2="388.0" y2="49.1" stroke="rgb(0,0,0)"  stroke-width="1.0"/>
<line x1="270.4" y1="46.5" x2="293.8" y2="60.0" stroke="rgb(0,0,0)"  stroke-width="1.0"/>
<line x1="154.1" y1="332.2" x2="130.7" y2="345.7" stroke="rgb(0,0,0)"  stroke-width="1.0"/>
<line x1="122.1" y1="364.9" x2="127.7" y2="391.3" stroke="rgb(0,0,0)"  stroke-width="1.0"/>
<line x1="127.7" y1="391.3" x2="167.5" y2="395.5" stroke="rgb(0,0,0)"  stroke-width="1.0"/>
<line x1="167.5" y1="395.5" x2="183.8" y2="358.9" stroke="rgb(0,0,0)"  stroke-width="1.0"/>
<line x1="183.8" y1="358.9" x2="154.1" y2="332.2" stroke="rgb(0,0,0)"  stroke-width="1.0"/>
<line x1="310.0" y1="188.9" x2="270.2" y2="184.7" stroke="rgb(0,0,0)"  stroke-width="1.0"/>
<line x1="270.2" y1="184.7" x2="253.9" y2="221.2" stroke="rgb(0,0,0)"  stroke-width="1.0"/>
<line x1="253.9" y1="221.2" x2="283.7" y2="248.0" stroke="rgb(0,0,0)"  stroke-width="1.0"/>
<line x1="283.7" y1="248.0" x2="307.1" y2="234.5" stroke="rgb(0,0,0)"  stroke-width="1.0"/>
<line x1="315.6" y1="215.3" x2="310.0" y2="188.9" stroke="rgb(0,0,0)"  stroke-width="1.0"/>
<line x1="88.0" y1="419.6" x2="61.2" y2="416.8" stroke="rgb(0,0,0)"  stroke-width="1.0"/>
<line x1="61.2" y1="416.8" x2="50.3" y2="441.3" stroke="rgb(0,0,0)"  stroke-width="1.0"/>
<line x1="65.3" y1="425.2" x2="57.7" y2="442.4" stroke="rgb(0,0,0)"  stroke-width="1.0"/>
<line x1="54.6" y1="462.1" x2="74.6" y2="480.1" stroke="rgb(0,0,0)"  stroke-width="1.0"/>
<line x1="74.6" y1="480.1" x2="109.3" y2="460.1" stroke="rgb(0,0,0)"  stroke-width="1.0"/>
<line x1="76.2" y1="470.9" x2="100.5" y2="456.9" stroke="rgb(0,0,0)"  stroke-width="1.0"/>
<line x1="109.3" y1="460.1" x2="103.7" y2="433.7" stroke="rgb(0,0,0)"  stroke-width="1.0"/>
<line x1="334.1" y1="146.4" x2="328.4" y2="120.0" stroke="rgb(0,0,0)"  stroke-width="1.0"/>
<line x1="328.4" y1="120.0" x2="363.1" y2="100.0" stroke="rgb(0,0,0)"  stroke-width="1.0"/>
<line x1="337.2" y1="123.2" x2="361.5" y2="109.2" stroke="rgb(0,0,0)"  stroke-width="1.0"/>
<line x1="363.1" y1="100.0" x2="383.1" y2="118.1" stroke="rgb(0,0,0)"  stroke-width="1.0"/>
<line x1="387.4" y1="138.8" x2="376.5" y2="163.3" stroke="rgb(0,0,0)"  stroke-width="1.0"/>
<line x1="380.1" y1="137.7" x2="372.4" y2="154.9" stroke="rgb(0,0,0)"  stroke-width="1.0"/>
<line x1="376.5" y1="163.3" x2="349.7" y2="160.5" stroke="rgb(0,0,0)"  stroke-width="1.0"/>
<line x1="74.6" y1="520.1" x2="98.0" y2="533.6" stroke="rgb(0,0,0)"  stroke-width="1.0"/>
<line x1="120.7" y1="533.5" x2="143.9" y2="520.1" stroke="rgb(0,0,0)"  stroke-width="1.0"/>
<line x1="118.8" y1="526.3" x2="135.1" y2="516.9" stroke="rgb(0,0,0)"  stroke-width="1.0"/>
<line x1="143.9" y1="520.1" x2="143.9" y2="493.1" stroke="rgb(0,0,0)"  stroke-width="1.0"/>
<line x1="132.7" y1="473.6" x2="109.3" y2="460.1" stroke="rgb(0,0,0)"  stroke-width="1.0"/>
<line x1="74.6" y1="480.1" x2="74.6" y2="520.1" stroke="rgb(0,0,0)"  stroke-width="1.0"/>
<line x1="363.1" y1="60.0" x2="363.1" y2="100.0" stroke="rgb(0,0,0)"  stroke-width="1.0"/>
<line x1="328.4" y1="120.0" x2="305.1" y2="106.5" stroke="rgb(0,0,0)"  stroke-width="1.0"/>
<line x1="293.8" y1="87.0" x2="293.8" y2="60.0" stroke="rgb(0,0,0)"  stroke-width="1.0"/>
<line x1="293.8" y1="60.0" x2="317.0" y2="46.6" stroke="rgb(0,0,0)"  stroke-width="1.0"/>
<line x1="302.6" y1="63.2" x2="318.9" y2="53.8" stroke="rgb(0,0,0)"  stroke-width="1.0"/>
<line x1="339.7" y1="46.5" x2="363.1" y2="60.0" stroke="rgb(0,0,0)"  stroke-width="1.0"/>
<line x1="253.9" y1="221.2" x2="227.5" y2="215.6" stroke="rgb(0,0,0)"  stroke-width="1.0"/>
<line x1="202.5" y1="216.9" x2="189.1" y2="221.2" stroke="rgb(0,0,0)"  stroke-width="1.0"/>
<line x1="168.1" y1="234.9" x2="158.7" y2="245.3" stroke="rgb(0,0,0)"  stroke-width="1.0"/>
<line x1="147.3" y1="267.7" x2="141.7" y2="294.1" stroke="rgb(0,0,0)"  stroke-width="1.0"/>
<line x1="141.7" y1="294.1" x2="154.1" y2="332.2" stroke="rgb(0,0,0)"  stroke-width="1.0"/>
<line x1="183.8" y1="358.9" x2="210.2" y2="364.5" stroke="rgb(0,0,0)"  stroke-width="1.0"/>
<line x1="235.3" y1="363.2" x2="248.6" y2="358.9" stroke="rgb(0,0,0)"  stroke-width="1.0"/>
<line x1="269.6" y1="345.2" x2="279.0" y2="334.8" stroke="rgb(0,0,0)"  stroke-width="1.0"/>
<line x1="290.4" y1="312.4" x2="296.0" y2="286.0" stroke="rgb(0,0,0)"  stroke-width="1.0"/>
<line x1="296.0" y1="286.0" x2="283.7" y2="248.0" stroke="rgb(0,0,0)"  stroke-width="1.0"/>
<text x="170.776350" y="233.256589" fill="rgb(255,127,0)"  stroke="rgb(255,127,0)" stroke-width="1" font-size="16" >P</text>
<text x="123.136089" y="215.096969" fill="rgb(255,12,12)"  stroke="rgb(255,12,12)" stroke-width="1" font-size="16" >HO</text>
<text x="168.682911" y="193.311408" fill="rgb(255,12,12)"  stroke="rgb(255,12,12)" stroke-width="1" font-size="16" >O</text>
<text x="144.011125" y="262.982382" fill="rgb(255,12,12)"  stroke="rgb(255,12,12)" stroke-width="1" font-size="16" >O</text>
<text x="113.414321" y="360.150547" fill="rgb(255,12,12)"  stroke="rgb(255,12,12)" stroke-width="1" font-size="16" >O</text>
<text x="216.907034" y="375.232239" fill="rgb(255,12,12)"  stroke="rgb(255,12,12)" stroke-width="1" font-size="16" >O</text>
<text x="181.511665" y="438.098605" fill="rgb(255,12,12)"  stroke="rgb(255,12,12)" stroke-width="1" font-size="16" >OH</text>
<text x="94.965565" y="429.002244" fill="rgb(12,12,255)"  stroke="rgb(12,12,255)" stroke-width="1" font-size="16" >N</text>
<text x="38.915223" y="461.362923" fill="rgb(12,12,255)"  stroke="rgb(12,12,255)" stroke-width="1" font-size="16" >N</text>
<text x="34.000000" y="548.128148" fill="rgb(255,12,12)"  stroke="rgb(255,12,12)" stroke-width="1" font-size="16" >O</text>
<text x="103.282032" y="548.128148" fill="rgb(12,12,255)"  stroke="rgb(12,12,255)" stroke-width="1" font-size="16" >N</text>
<text x="174.564065" y="548.128148" fill="rgb(12,12,255)"  stroke="rgb(12,12,255)" stroke-width="1" font-size="16" >NH</text>
<text x="198.564065" y="551.808148" fill="rgb(12,12,255)"  stroke="rgb(12,12,255)" stroke-width="1" font-size="13" >2</text>
<text x="137.923048" y="488.128148" fill="rgb(12,12,255)"  stroke="rgb(12,12,255)" stroke-width="1" font-size="16" >NH</text>
<text x="254.949295" y="362.871559" fill="rgb(255,127,0)"  stroke="rgb(255,127,0)" stroke-width="1" font-size="16" >P</text>
<text x="290.589556" y="381.031179" fill="rgb(255,12,12)"  stroke="rgb(255,12,12)" stroke-width="1" font-size="16" >O</text>
<text x="257.042733" y="402.816740" fill="rgb(255,12,12)"  stroke="rgb(255,12,12)" stroke-width="1" font-size="16" >OH</text>
<text x="281.714519" y="333.145766" fill="rgb(255,12,12)"  stroke="rgb(255,12,12)" stroke-width="1" font-size="16" >O</text>
<text x="312.311323" y="235.977601" fill="rgb(255,12,12)"  stroke="rgb(255,12,12)" stroke-width="1" font-size="16" >O</text>
<text x="208.818610" y="220.895909" fill="rgb(255,12,12)"  stroke="rgb(255,12,12)" stroke-width="1" font-size="16" >O</text>
<text x="232.213980" y="158.029542" fill="rgb(255,12,12)"  stroke="rgb(255,12,12)" stroke-width="1" font-size="16" >HO</text>
<text x="330.760080" y="167.125904" fill="rgb(12,12,255)"  stroke="rgb(12,12,255)" stroke-width="1" font-size="16" >N</text>
<text x="386.810422" y="134.765224" fill="rgb(12,12,255)"  stroke="rgb(12,12,255)" stroke-width="1" font-size="16" >N</text>
<text x="391.725645" y="48.000000" fill="rgb(255,12,12)"  stroke="rgb(255,12,12)" stroke-width="1" font-size="16" >O</text>
<text x="322.443612" y="48.000000" fill="rgb(12,12,255)"  stroke="rgb(12,12,255)" stroke-width="1" font-size="16" >N</text>
<text x="233.161580" y="48.000000" fill="rgb(12,12,255)"  stroke="rgb(12,12,255)" stroke-width="1" font-size="16" >H</text>
<text x="245.161580" y="51.680000" fill="rgb(12,12,255)"  stroke="rgb(12,12,255)" stroke-width="1" font-size="13" >2</text>
<text x="251.661580" y="48.000000" fill="rgb(12,12,255)"  stroke="rgb(12,12,255)" stroke-width="1" font-size="16" >N</text>
<text x="275.802596" y="108.000000" fill="rgb(12,12,255)"  stroke="rgb(12,12,255)" stroke-width="1" font-size="16" >HN</text>
<text font-size="18.000000" fill ="black" font-family="sans-serif"
x="10.000000" y="20.000000" ></text>
<title> - OBDepict</title>
</svg>
